
  <svg width="104.25" height="48" viewBox="0 0 556 256" fill="none" xmlns="http://www.w3.org/2000/svg" xmlns:xlink="http://www.w3.org/1999/xlink" version="1.1">
    
        <g transform="translate(0, 0)">
          <svg width="256" height="256" viewBox="0 0 256 256" fill="none" xmlns="http://www.w3.org/2000/svg">
<rect width="256" height="256" rx="60" fill="#242938"/>
<path d="M180.975 90.4153L167.567 103.824C189.508 125.765 189.508 161.115 167.567 182.65C145.625 204.591 110.275 204.591 88.7404 182.65C66.7991 160.709 66.7991 125.359 88.7404 103.824L123.481 69.0835L128.357 64.2077V38L75.9413 90.4153C46.6862 119.67 46.6862 166.804 75.9413 196.059C105.196 225.314 152.33 225.314 180.975 196.059C210.23 166.6 210.23 119.67 180.975 90.4153Z" fill="#EE4C2C"/>
<path d="M154.77 87.1705C160.156 87.1705 164.522 82.8045 164.522 77.4188C164.522 72.0331 160.156 67.667 154.77 67.667C149.385 67.667 145.019 72.0331 145.019 77.4188C145.019 82.8045 149.385 87.1705 154.77 87.1705Z" fill="#EE4C2C"/>
</svg>

        </g>
         
        <g transform="translate(300, 0)">
          <svg xmlns="http://www.w3.org/2000/svg" width="256" height="256" fill="none" viewBox="0 0 256 256"><rect width="256" height="256" fill="#242938" rx="60"/><path fill="#EA4335" d="M161.009 92.3895L178.394 75.0043L179.553 67.684C147.873 38.877 97.5124 42.1434 68.9538 74.4997C61.021 83.4864 55.1358 94.6903 51.9976 106.26L58.2241 105.382L92.9937 99.6489L95.678 96.9036C111.144 79.9176 137.295 77.6325 155.153 92.0848L161.009 92.3895Z"/><path fill="#4285F4" d="M203.16 105.749C199.164 91.033 190.96 77.8041 179.553 67.6846L155.153 92.0846C165.456 100.503 171.326 113.186 171.074 126.489V130.82C183.067 130.82 192.79 140.542 192.79 152.535C192.79 164.529 183.067 174.008 171.074 174.008H127.581L123.311 178.644V204.691L127.581 208.778H171.074C202.269 209.021 227.755 184.173 227.998 152.978C228.145 134.069 218.823 116.342 203.16 105.749Z"/><path fill="#34A853" d="M84.1488 208.778H127.581V174.008H84.1488C81.0543 174.007 78.0574 173.342 75.2433 172.056L69.0816 173.947L51.5746 191.332L50.0496 197.249C59.8675 204.662 71.8464 208.831 84.1488 208.778Z"/><path fill="#FBBC05" d="M84.1487 95.9886C52.9526 96.1746 27.8151 121.615 28.001 152.811C28.1049 170.231 36.2409 186.629 50.0495 197.249L75.2432 172.056C64.3128 167.118 59.4557 154.254 64.394 143.325C69.3315 132.395 82.1956 127.538 93.1245 132.475C97.9409 134.651 101.798 138.509 103.974 143.325L129.167 118.132C118.448 104.118 101.792 95.9254 84.1487 95.9886Z"/></svg>
        </g>
        
  </svg>
  